<svg width="122" height="33" viewBox="0 0 122 33" fill="none" xmlns="http://www.w3.org/2000/svg">
<g clip-path="url(#clip0_44591_874)">
<mask id="mask0_44591_874" style="mask-type:luminance" maskUnits="userSpaceOnUse" x="0" y="0" width="33" height="33">
<path d="M33 0H0V33H33V0Z" fill="white"/>
</mask>
<g mask="url(#mask0_44591_874)">
<path fill-rule="evenodd" clip-rule="evenodd" d="M17.6786 0H15.3214V10.4368L11.4117 0.75996L9.22624 1.64296L13.2372 11.5704L5.66612 3.99935L3.99937 5.66612L11.2559 12.9227L1.85198 8.81399L0.908257 10.974L10.8587 15.3214H0V17.6786H10.8587L0.908261 22.026L1.85198 24.186L11.2559 20.0774L3.99937 27.3339L5.66612 29.0006L13.2372 21.4295L9.22624 31.3571L11.4117 32.24L15.3214 22.5633V33H17.6786V22.5633L21.5883 32.24L23.7737 31.3571L19.7629 21.4295L27.3339 29.0006L29.0006 27.3339L21.744 20.0774L31.148 24.186L32.0917 22.026L22.1414 17.6786H33V15.3214H22.1412L32.0917 10.974L31.148 8.81399L21.744 12.9227L29.0006 5.6661L27.3339 3.99935L19.7629 11.5704L23.7737 1.64296L21.5883 0.75996L17.6786 10.4368V0Z" fill="#1C65DA"/>
</g>
</g>
<path d="M54.5411 8.4C56.1502 8.4 57.3487 8.77714 58.1365 9.53143C58.9243 10.2857 59.3182 11.4004 59.3182 12.8754C59.3182 13.6632 59.1255 14.3589 58.7399 14.9623C58.3544 15.549 57.7845 16.0099 57.0302 16.3451C56.2759 16.6636 55.3456 16.8229 54.2394 16.8229L54.3399 15.6914C54.8595 15.6914 55.4546 15.7669 56.1251 15.9177C56.7955 16.0518 57.4409 16.3032 58.0611 16.672C58.698 17.024 59.2176 17.5269 59.6199 18.1806C60.039 18.8175 60.2485 19.6389 60.2485 20.6446C60.2485 21.7509 60.0641 22.656 59.6954 23.36C59.3434 24.064 58.874 24.6088 58.2874 24.9943C57.7007 25.3798 57.0721 25.648 56.4016 25.7989C55.7312 25.933 55.0858 26 54.4656 26H48.2051C47.7693 26 47.4005 25.8575 47.0988 25.5726C46.8138 25.2709 46.6714 24.9021 46.6714 24.4663V9.93371C46.6714 9.4979 46.8138 9.13752 47.0988 8.85257C47.4005 8.55086 47.7693 8.4 48.2051 8.4H54.5411ZM54.0885 11.3669H49.6131L49.9399 10.9646V15.5154L49.6382 15.2891H54.1639C54.65 15.2891 55.0858 15.1299 55.4714 14.8114C55.8569 14.493 56.0496 14.032 56.0496 13.4286C56.0496 12.7078 55.8653 12.1882 55.4965 11.8697C55.1445 11.5345 54.6752 11.3669 54.0885 11.3669ZM54.2896 18.256H49.7136L49.9399 18.0549V23.36L49.6885 23.1086H54.4656C55.2367 23.1086 55.8485 22.9074 56.3011 22.5051C56.7536 22.0861 56.9799 21.4659 56.9799 20.6446C56.9799 19.8903 56.8291 19.3455 56.5274 19.0103C56.2256 18.675 55.8653 18.4655 55.4462 18.3817C55.0272 18.2979 54.6416 18.256 54.2896 18.256ZM75.92 19.2869C75.92 20.6613 75.6099 21.8766 74.9897 22.9326C74.3863 23.9718 73.5649 24.7848 72.5257 25.3714C71.5032 25.9581 70.355 26.2514 69.0811 26.2514C67.8072 26.2514 66.6506 25.9581 65.6114 25.3714C64.5889 24.7848 63.7676 23.9718 63.1474 22.9326C62.544 21.8766 62.2423 20.6613 62.2423 19.2869C62.2423 17.9124 62.544 16.7055 63.1474 15.6663C63.7676 14.6103 64.5889 13.789 65.6114 13.2023C66.6506 12.5989 67.8072 12.2971 69.0811 12.2971C70.355 12.2971 71.5032 12.5989 72.5257 13.2023C73.5649 13.789 74.3863 14.6103 74.9897 15.6663C75.6099 16.7055 75.92 17.9124 75.92 19.2869ZM72.9028 19.2869C72.9028 18.432 72.7268 17.6945 72.3748 17.0743C72.0396 16.4373 71.5786 15.9429 70.992 15.5909C70.4221 15.2389 69.7851 15.0629 69.0811 15.0629C68.3771 15.0629 67.7318 15.2389 67.1451 15.5909C66.5752 15.9429 66.1143 16.4373 65.7623 17.0743C65.427 17.6945 65.2594 18.432 65.2594 19.2869C65.2594 20.125 65.427 20.8625 65.7623 21.4994C66.1143 22.1196 66.5752 22.6057 67.1451 22.9577C67.7318 23.3097 68.3771 23.4857 69.0811 23.4857C69.7851 23.4857 70.4221 23.3097 70.992 22.9577C71.5786 22.6057 72.0396 22.1196 72.3748 21.4994C72.7268 20.8625 72.9028 20.125 72.9028 19.2869ZM91.6097 19.2869C91.6097 20.6613 91.2996 21.8766 90.6794 22.9326C90.076 23.9718 89.2547 24.7848 88.2154 25.3714C87.1929 25.9581 86.0447 26.2514 84.7708 26.2514C83.4969 26.2514 82.3404 25.9581 81.3011 25.3714C80.2787 24.7848 79.4573 23.9718 78.8371 22.9326C78.2337 21.8766 77.932 20.6613 77.932 19.2869C77.932 17.9124 78.2337 16.7055 78.8371 15.6663C79.4573 14.6103 80.2787 13.789 81.3011 13.2023C82.3404 12.5989 83.4969 12.2971 84.7708 12.2971C86.0447 12.2971 87.1929 12.5989 88.2154 13.2023C89.2547 13.789 90.076 14.6103 90.6794 15.6663C91.2996 16.7055 91.6097 17.9124 91.6097 19.2869ZM88.5926 19.2869C88.5926 18.432 88.4166 17.6945 88.0646 17.0743C87.7293 16.4373 87.2684 15.9429 86.6817 15.5909C86.1118 15.2389 85.4748 15.0629 84.7708 15.0629C84.0668 15.0629 83.4215 15.2389 82.8348 15.5909C82.2649 15.9429 81.804 16.4373 81.452 17.0743C81.1167 17.6945 80.9491 18.432 80.9491 19.2869C80.9491 20.125 81.1167 20.8625 81.452 21.4994C81.804 22.1196 82.2649 22.6057 82.8348 22.9577C83.4215 23.3097 84.0668 23.4857 84.7708 23.4857C85.4748 23.4857 86.1118 23.3097 86.6817 22.9577C87.2684 22.6057 87.7293 22.1196 88.0646 21.4994C88.4166 20.8625 88.5926 20.125 88.5926 19.2869ZM96.0103 26C95.5745 26 95.2141 25.8575 94.9291 25.5726C94.6442 25.2709 94.5017 24.9021 94.5017 24.4663V8.928C94.5017 8.49219 94.6442 8.13181 94.9291 7.84686C95.2141 7.54514 95.5745 7.39429 96.0103 7.39429C96.4461 7.39429 96.8065 7.54514 97.0914 7.84686C97.3764 8.13181 97.5189 8.49219 97.5189 8.928V24.4663C97.5189 24.9021 97.3764 25.2709 97.0914 25.5726C96.8065 25.8575 96.4461 26 96.0103 26ZM104.006 12.5486C104.391 12.5486 104.726 12.7078 105.011 13.0263C105.296 13.3448 105.439 13.6549 105.439 13.9566C105.439 14.3589 105.238 14.736 104.835 15.088L97.2674 22.0526L97.1417 18.5829L102.899 13.0263C103.218 12.7078 103.587 12.5486 104.006 12.5486ZM104.383 25.9749C103.947 25.9749 103.578 25.8072 103.277 25.472L98.6251 20.544L100.913 18.432L105.439 23.36C105.757 23.6952 105.917 24.0724 105.917 24.4914C105.917 24.9272 105.741 25.2876 105.389 25.5726C105.053 25.8408 104.718 25.9749 104.383 25.9749ZM118.547 12.5486C118.983 12.5486 119.343 12.6994 119.628 13.0011C119.913 13.2861 120.055 13.6465 120.055 14.0823V24.768C120.055 26.3101 119.762 27.5337 119.175 28.4389C118.605 29.3608 117.834 30.0229 116.862 30.4251C115.89 30.8274 114.8 31.0286 113.594 31.0286C113.057 31.0286 112.487 30.9867 111.884 30.9029C111.28 30.819 110.786 30.6933 110.4 30.5257C109.898 30.3078 109.546 30.0312 109.344 29.696C109.16 29.3775 109.127 29.0339 109.244 28.6651C109.395 28.179 109.638 27.8438 109.973 27.6594C110.308 27.4918 110.66 27.475 111.029 27.6091C111.297 27.693 111.649 27.8187 112.085 27.9863C112.521 28.1707 113.024 28.2629 113.594 28.2629C114.365 28.2629 115.002 28.1539 115.504 27.936C116.024 27.7349 116.41 27.3829 116.661 26.88C116.929 26.3939 117.063 25.7234 117.063 24.8686V23.184L117.591 23.7874C117.306 24.3406 116.946 24.8015 116.51 25.1703C116.091 25.5223 115.588 25.7905 115.002 25.9749C114.415 26.1592 113.744 26.2514 112.99 26.2514C112.102 26.2514 111.322 26.0503 110.652 25.648C109.998 25.229 109.487 24.659 109.118 23.9383C108.749 23.2008 108.565 22.3627 108.565 21.424V14.0823C108.565 13.6465 108.707 13.2861 108.992 13.0011C109.277 12.6994 109.638 12.5486 110.074 12.5486C110.509 12.5486 110.87 12.6994 111.155 13.0011C111.44 13.2861 111.582 13.6465 111.582 14.0823V20.5189C111.582 21.6084 111.817 22.3794 112.286 22.832C112.772 23.2678 113.443 23.4857 114.298 23.4857C114.884 23.4857 115.379 23.3768 115.781 23.1589C116.183 22.9242 116.493 22.589 116.711 22.1531C116.929 21.7006 117.038 21.1558 117.038 20.5189V14.0823C117.038 13.6465 117.181 13.2861 117.466 13.0011C117.751 12.6994 118.111 12.5486 118.547 12.5486Z" fill="#0A0D12"/>
<defs>
<clipPath id="clip0_44591_874">
<rect width="33" height="33" fill="white"/>
</clipPath>
</defs>
</svg>
